<mxfile host="Electron" modified="2023-06-15T08:10:09.136Z" agent="Mozilla/5.0 (Windows NT 10.0; Win64; x64) AppleWebKit/537.36 (KHTML, like Gecko) draw.io/21.2.8 Chrome/112.0.5615.165 Electron/24.2.0 Safari/537.36" etag="KlE3en3QiDEKlXq4pL2j" version="21.2.8" type="device">
  <diagram name="Página-1" id="5U6_yA86q6ppDP3oj2aw">
    <mxGraphModel dx="2074" dy="844" grid="1" gridSize="10" guides="1" tooltips="1" connect="1" arrows="1" fold="1" page="1" pageScale="1" pageWidth="827" pageHeight="1169" math="0" shadow="0">
      <root>
        <mxCell id="0" />
        <mxCell id="1" parent="0" />
        <mxCell id="DD6_6x-OjlatYljrYdJe-1" value="&lt;div style=&quot;text-align: center;&quot;&gt;&lt;span style=&quot;background-color: initial;&quot;&gt;&lt;font style=&quot;font-size: 16px;&quot;&gt;O cliente realizou um pedido e recebeu uma mensagem de&amp;nbsp;&lt;/font&gt;&lt;/span&gt;&lt;span style=&quot;font-size: 16px; background-color: initial;&quot;&gt;que ele será notificado quando o pedido for enviado&lt;/span&gt;&lt;/div&gt;" style="text;html=1;strokeColor=none;fillColor=none;align=left;verticalAlign=middle;whiteSpace=wrap;rounded=0;" vertex="1" parent="1">
          <mxGeometry x="33" y="32" width="236" height="100" as="geometry" />
        </mxCell>
        <mxCell id="DD6_6x-OjlatYljrYdJe-2" value="" style="ellipse;html=1;shape=startState;fillColor=#000000;strokeColor=#ff0000;rounded=1;shadow=0;comic=0;labelBackgroundColor=none;fontFamily=Verdana;fontSize=12;fontColor=#000000;align=center;direction=south;" vertex="1" parent="1">
          <mxGeometry x="50" y="118" width="30" height="30" as="geometry" />
        </mxCell>
        <mxCell id="DD6_6x-OjlatYljrYdJe-3" value="&lt;b&gt;RECEBIDO&lt;/b&gt;" style="rounded=1;whiteSpace=wrap;html=1;arcSize=24;fillColor=#dae8fc;strokeColor=#6c8ebf;shadow=0;comic=0;labelBackgroundColor=none;fontFamily=Verdana;fontSize=12;align=center;" vertex="1" parent="1">
          <mxGeometry x="230" y="103" width="120" height="60" as="geometry" />
        </mxCell>
        <mxCell id="DD6_6x-OjlatYljrYdJe-4" style="html=1;labelBackgroundColor=none;endArrow=open;endSize=8;fontFamily=Verdana;fontSize=12;align=left;strokeColor=#666666;fillColor=#f5f5f5;exitX=0.5;exitY=0;exitDx=0;exitDy=0;entryX=0;entryY=0.5;entryDx=0;entryDy=0;" edge="1" parent="1" source="DD6_6x-OjlatYljrYdJe-2" target="DD6_6x-OjlatYljrYdJe-3">
          <mxGeometry relative="1" as="geometry">
            <mxPoint x="40" y="53" as="sourcePoint" />
            <mxPoint x="290" y="53" as="targetPoint" />
          </mxGeometry>
        </mxCell>
        <mxCell id="DD6_6x-OjlatYljrYdJe-5" value="&lt;b&gt;CONFIRMADO&lt;/b&gt;" style="rounded=1;whiteSpace=wrap;html=1;arcSize=24;fillColor=#dae8fc;strokeColor=#6c8ebf;shadow=0;comic=0;labelBackgroundColor=none;fontFamily=Verdana;fontSize=12;align=center;" vertex="1" parent="1">
          <mxGeometry x="230" y="260" width="120" height="60" as="geometry" />
        </mxCell>
        <mxCell id="DD6_6x-OjlatYljrYdJe-6" style="html=1;labelBackgroundColor=none;endArrow=open;endSize=8;fontFamily=Verdana;fontSize=12;align=left;strokeColor=#666666;fillColor=#f5f5f5;entryX=0.5;entryY=0;entryDx=0;entryDy=0;exitX=0.5;exitY=1;exitDx=0;exitDy=0;" edge="1" parent="1" source="DD6_6x-OjlatYljrYdJe-3" target="DD6_6x-OjlatYljrYdJe-5">
          <mxGeometry relative="1" as="geometry">
            <mxPoint x="311" y="163" as="sourcePoint" />
            <mxPoint x="330" y="143" as="targetPoint" />
          </mxGeometry>
        </mxCell>
        <mxCell id="DD6_6x-OjlatYljrYdJe-7" value="&lt;span style=&quot;font-size: 16px;&quot;&gt;O endereço do cliente é elegível e o produto tem em estoque&lt;/span&gt;" style="text;html=1;strokeColor=none;fillColor=none;align=left;verticalAlign=middle;whiteSpace=wrap;rounded=0;" vertex="1" parent="1">
          <mxGeometry x="297" y="175" width="160" height="60" as="geometry" />
        </mxCell>
        <mxCell id="DD6_6x-OjlatYljrYdJe-8" style="html=1;labelBackgroundColor=none;endArrow=open;endSize=8;fontFamily=Verdana;fontSize=12;align=left;strokeColor=#666666;fillColor=#f5f5f5;entryX=0.5;entryY=1;entryDx=0;entryDy=0;exitX=1;exitY=0.5;exitDx=0;exitDy=0;" edge="1" parent="1" source="DD6_6x-OjlatYljrYdJe-5" target="DD6_6x-OjlatYljrYdJe-13">
          <mxGeometry relative="1" as="geometry">
            <mxPoint x="370" y="320" as="sourcePoint" />
            <mxPoint x="470" y="290" as="targetPoint" />
            <Array as="points">
              <mxPoint x="530" y="290" />
            </Array>
          </mxGeometry>
        </mxCell>
        <mxCell id="DD6_6x-OjlatYljrYdJe-9" value="&lt;b&gt;ENVIADO&lt;/b&gt;" style="rounded=1;whiteSpace=wrap;html=1;arcSize=24;fillColor=#dae8fc;strokeColor=#6c8ebf;shadow=0;comic=0;labelBackgroundColor=none;fontFamily=Verdana;fontSize=12;align=center;" vertex="1" parent="1">
          <mxGeometry x="527" y="400" width="120" height="60" as="geometry" />
        </mxCell>
        <mxCell id="DD6_6x-OjlatYljrYdJe-10" style="edgeStyle=orthogonalEdgeStyle;rounded=0;orthogonalLoop=1;jettySize=auto;html=1;exitX=0;exitY=0.5;exitDx=0;exitDy=0;entryX=1;entryY=0.5;entryDx=0;entryDy=0;" edge="1" parent="1" source="DD6_6x-OjlatYljrYdJe-11" target="DD6_6x-OjlatYljrYdJe-25">
          <mxGeometry relative="1" as="geometry" />
        </mxCell>
        <mxCell id="DD6_6x-OjlatYljrYdJe-11" value="&lt;b&gt;ENTREGUE&lt;/b&gt;" style="rounded=1;whiteSpace=wrap;html=1;arcSize=24;fillColor=#dae8fc;strokeColor=#6c8ebf;shadow=0;comic=0;labelBackgroundColor=none;fontFamily=Verdana;fontSize=12;align=center;" vertex="1" parent="1">
          <mxGeometry x="527" y="545" width="120" height="60" as="geometry" />
        </mxCell>
        <mxCell id="DD6_6x-OjlatYljrYdJe-12" style="html=1;labelBackgroundColor=none;endArrow=open;endSize=8;fontFamily=Verdana;fontSize=12;align=left;strokeColor=#666666;fillColor=#f5f5f5;entryX=0.5;entryY=0;entryDx=0;entryDy=0;exitX=0.5;exitY=1;exitDx=0;exitDy=0;" edge="1" parent="1" source="DD6_6x-OjlatYljrYdJe-9" target="DD6_6x-OjlatYljrYdJe-11">
          <mxGeometry relative="1" as="geometry">
            <mxPoint x="685" y="450" as="sourcePoint" />
            <mxPoint x="825" y="223" as="targetPoint" />
          </mxGeometry>
        </mxCell>
        <mxCell id="DD6_6x-OjlatYljrYdJe-13" value="&lt;b&gt;CANCELADO&lt;/b&gt;" style="rounded=1;whiteSpace=wrap;html=1;arcSize=24;fillColor=#dae8fc;strokeColor=#6c8ebf;shadow=0;comic=0;labelBackgroundColor=none;fontFamily=Verdana;fontSize=12;align=center;" vertex="1" parent="1">
          <mxGeometry x="470" y="103" width="120" height="60" as="geometry" />
        </mxCell>
        <mxCell id="DD6_6x-OjlatYljrYdJe-14" style="html=1;labelBackgroundColor=none;endArrow=open;endSize=8;fontFamily=Verdana;fontSize=12;align=left;strokeColor=#666666;fillColor=#f5f5f5;entryX=0;entryY=0.5;entryDx=0;entryDy=0;exitX=1;exitY=0.5;exitDx=0;exitDy=0;" edge="1" parent="1" source="DD6_6x-OjlatYljrYdJe-3" target="DD6_6x-OjlatYljrYdJe-13">
          <mxGeometry relative="1" as="geometry">
            <mxPoint x="690" y="243" as="sourcePoint" />
            <mxPoint x="810" y="243" as="targetPoint" />
          </mxGeometry>
        </mxCell>
        <mxCell id="DD6_6x-OjlatYljrYdJe-15" value="" style="ellipse;html=1;shape=endState;fillColor=#000000;strokeColor=#ff0000;" vertex="1" parent="1">
          <mxGeometry x="640" y="118" width="30" height="30" as="geometry" />
        </mxCell>
        <mxCell id="DD6_6x-OjlatYljrYdJe-16" style="html=1;labelBackgroundColor=none;endArrow=open;endSize=8;fontFamily=Verdana;fontSize=12;align=left;strokeColor=#666666;fillColor=#f5f5f5;entryX=0;entryY=0.5;entryDx=0;entryDy=0;exitX=1;exitY=0.5;exitDx=0;exitDy=0;" edge="1" parent="1" source="DD6_6x-OjlatYljrYdJe-13" target="DD6_6x-OjlatYljrYdJe-15">
          <mxGeometry relative="1" as="geometry">
            <mxPoint x="690" y="373" as="sourcePoint" />
            <mxPoint x="790" y="373" as="targetPoint" />
          </mxGeometry>
        </mxCell>
        <mxCell id="DD6_6x-OjlatYljrYdJe-17" value="&lt;span style=&quot;font-size: 16px;&quot;&gt;O endereço do cliente não é elegível ou o produto não tem em estoque&lt;/span&gt;" style="text;html=1;strokeColor=none;fillColor=none;align=left;verticalAlign=middle;whiteSpace=wrap;rounded=0;" vertex="1" parent="1">
          <mxGeometry x="337" y="40" width="190" height="60" as="geometry" />
        </mxCell>
        <mxCell id="DD6_6x-OjlatYljrYdJe-18" value="&lt;span style=&quot;font-size: 16px;&quot;&gt;O pedido foi enviado pela transportadora&lt;/span&gt;" style="text;html=1;strokeColor=none;fillColor=none;align=left;verticalAlign=middle;whiteSpace=wrap;rounded=0;" vertex="1" parent="1">
          <mxGeometry x="365" y="380" width="160" height="43" as="geometry" />
        </mxCell>
        <mxCell id="DD6_6x-OjlatYljrYdJe-19" value="&lt;span style=&quot;font-size: 16px;&quot;&gt;O pedido foi entregue no endereço do cliente&lt;/span&gt;" style="text;html=1;strokeColor=none;fillColor=none;align=left;verticalAlign=middle;whiteSpace=wrap;rounded=0;" vertex="1" parent="1">
          <mxGeometry x="414" y="470" width="170" height="60" as="geometry" />
        </mxCell>
        <mxCell id="DD6_6x-OjlatYljrYdJe-20" value="" style="endArrow=classic;html=1;rounded=0;exitX=0.5;exitY=1;exitDx=0;exitDy=0;entryX=0.5;entryY=0;entryDx=0;entryDy=0;" edge="1" parent="1" source="DD6_6x-OjlatYljrYdJe-5" target="DD6_6x-OjlatYljrYdJe-23">
          <mxGeometry width="50" height="50" relative="1" as="geometry">
            <mxPoint x="160" y="440" as="sourcePoint" />
            <mxPoint x="210" y="390" as="targetPoint" />
          </mxGeometry>
        </mxCell>
        <mxCell id="DD6_6x-OjlatYljrYdJe-21" value="&lt;span style=&quot;font-size: 16px;&quot;&gt;Pagamento não autorizado&lt;/span&gt;" style="text;html=1;strokeColor=none;fillColor=none;align=left;verticalAlign=middle;whiteSpace=wrap;rounded=0;" vertex="1" parent="1">
          <mxGeometry x="390" y="250" width="117.5" height="40" as="geometry" />
        </mxCell>
        <mxCell id="DD6_6x-OjlatYljrYdJe-22" style="edgeStyle=orthogonalEdgeStyle;rounded=0;orthogonalLoop=1;jettySize=auto;html=1;exitX=1;exitY=0.5;exitDx=0;exitDy=0;entryX=0;entryY=0.5;entryDx=0;entryDy=0;" edge="1" parent="1" source="DD6_6x-OjlatYljrYdJe-23" target="DD6_6x-OjlatYljrYdJe-9">
          <mxGeometry relative="1" as="geometry" />
        </mxCell>
        <mxCell id="DD6_6x-OjlatYljrYdJe-23" value="&lt;b&gt;EM_PREPARACAO&lt;/b&gt;" style="rounded=1;whiteSpace=wrap;html=1;arcSize=24;fillColor=#dae8fc;strokeColor=#6c8ebf;shadow=0;comic=0;labelBackgroundColor=none;fontFamily=Verdana;fontSize=12;align=center;" vertex="1" parent="1">
          <mxGeometry x="223.5" y="400" width="133" height="60" as="geometry" />
        </mxCell>
        <mxCell id="DD6_6x-OjlatYljrYdJe-24" value="&lt;span style=&quot;font-size: 16px;&quot;&gt;Pagamento autorizado&lt;/span&gt;" style="text;html=1;strokeColor=none;fillColor=none;align=left;verticalAlign=middle;whiteSpace=wrap;rounded=0;" vertex="1" parent="1">
          <mxGeometry x="190" y="337" width="100" height="43" as="geometry" />
        </mxCell>
        <mxCell id="DD6_6x-OjlatYljrYdJe-25" value="" style="ellipse;html=1;shape=endState;fillColor=#000000;strokeColor=#ff0000;" vertex="1" parent="1">
          <mxGeometry x="425" y="560" width="30" height="30" as="geometry" />
        </mxCell>
      </root>
    </mxGraphModel>
  </diagram>
</mxfile>
